<svg version="1.1" id="Layer_1" xmlns="http://www.w3.org/2000/svg" xmlns:xlink="http://www.w3.org/1999/xlink" x="0px" y="0px"
	 width="80px" height="80px" viewBox="0 0 80 80" enable-background="new 0 0 80 80" xml:space="preserve" fill="#ffffff">
<path fill-rule="evenodd" clip-rule="evenodd" d="M0,4.688c0-0.521,0-1.042,0-1.563C0.283,1.325,1.325,0.283,3.125,0
	c0.521,0,1.041,0,1.563,0C5.783,0.119,6.57,0.747,7.323,1.501c10.596,10.614,21.205,21.218,31.811,31.823
	c0.165,0.166,0.335,0.327,0.498,0.496c0.25,0.258,0.486,0.258,0.735,0c0.163-0.169,0.333-0.331,0.498-0.496
	C51.472,22.718,62.08,12.115,72.677,1.501C73.429,0.747,74.217,0.12,75.313,0c0.521,0,1.041,0,1.563,0
	C78.674,0.283,79.716,1.325,80,3.125c0,0.521,0,1.041,0,1.563c-0.12,1.096-0.748,1.883-1.502,2.636
	C67.884,17.919,57.281,28.528,46.676,39.134c-0.166,0.165-0.328,0.335-0.496,0.498c-0.259,0.249-0.259,0.486-0.001,0.735
	c0.169,0.163,0.331,0.333,0.496,0.498C57.281,51.471,67.884,62.08,78.498,72.677c0.754,0.752,1.382,1.539,1.502,2.636
	c0,0.572,0,1.146,0,1.719c-0.216,1.061-0.749,1.896-1.668,2.503c-0.456,0.303-0.982,0.282-1.457,0.466c-0.521,0-1.042,0-1.563,0
	c-1.097-0.12-1.884-0.748-2.636-1.502C62.08,67.884,51.472,57.281,40.865,46.675c-0.165-0.165-0.335-0.327-0.498-0.496
	c-0.249-0.258-0.486-0.258-0.735,0.001c-0.163,0.168-0.333,0.33-0.498,0.496C28.528,57.281,17.919,67.884,7.323,78.498
	C6.57,79.252,5.783,79.88,4.688,80c-0.521,0-1.042,0-1.563,0c-1.8-0.284-2.842-1.326-3.125-3.125c0-0.573,0-1.146,0-1.719
	c0.15-0.973,0.715-1.689,1.39-2.363c10.592-10.582,21.178-21.171,31.766-31.758c0.146-0.147,0.281-0.312,0.443-0.439
	c0.512-0.401,0.473-0.736,0.01-1.194c-3.183-3.15-6.342-6.325-9.509-9.492C16.568,22.378,9.042,14.844,1.501,7.323
	C0.746,6.571,0.119,5.783,0,4.688z"/>
</svg>
