<?xml version="1.0" encoding="utf-8"?>
<!-- Generator: Adobe Illustrator 16.0.0, SVG Export Plug-In . SVG Version: 6.00 Build 0)  -->
<!DOCTYPE svg PUBLIC "-//W3C//DTD SVG 1.1//EN" "http://www.w3.org/Graphics/SVG/1.1/DTD/svg11.dtd">
<svg version="1.1" id="Layer_1" xmlns="http://www.w3.org/2000/svg" xmlns:xlink="http://www.w3.org/1999/xlink" x="0px" y="0px"
	 width="32px" height="32px" viewBox="0 0 32 32" enable-background="new 0 0 32 32" xml:space="preserve">
<g>
	<path fill-rule="evenodd" clip-rule="evenodd" fill="#F05223" d="M32,16.376c-0.117,0.113-0.111,0.283-0.175,0.419
		c-0.386,0.774-1.025,1.123-1.864,1.125c-0.832,0.012-1.662,0.005-2.5,0.005c-8.432,0-16.864-0.005-25.298,0.002
		c-0.873,0.001-1.557-0.299-1.975-1.101C0.112,16.68,0.121,16.501,0,16.376c0-0.25,0-0.5,0-0.75
		c0.118-0.116,0.107-0.284,0.176-0.421c0.384-0.771,1.023-1.119,1.862-1.128c0.813-0.006,1.625-0.003,2.437-0.003
		c8.463,0,16.925,0.002,25.39-0.001c0.862,0,1.539,0.31,1.939,1.104c0.084,0.162,0.131,0.341,0.195,0.512
		C32,15.917,32,16.146,32,16.376z"/>
</g>
</svg>
