<?xml version="1.0" encoding="utf-8"?>
<!-- Generator: Adobe Illustrator 16.0.0, SVG Export Plug-In . SVG Version: 6.00 Build 0)  -->
<!DOCTYPE svg PUBLIC "-//W3C//DTD SVG 1.1//EN" "http://www.w3.org/Graphics/SVG/1.1/DTD/svg11.dtd">
<svg version="1.1" id="Layer_1" xmlns="http://www.w3.org/2000/svg" xmlns:xlink="http://www.w3.org/1999/xlink" x="0px" y="0px"
	 width="32px" height="32px" viewBox="0 0 32 32" enable-background="new 0 0 32 32" xml:space="preserve">
<g>
	<path fill-rule="evenodd" clip-rule="evenodd" fill="#F05223" d="M15.688,32c-0.299-0.135-0.611-0.241-0.845-0.495
		c-0.338-0.369-0.449-0.804-0.448-1.291c0.003-4.082-0.002-8.164,0.009-12.246c0.001-0.302-0.069-0.372-0.371-0.371
		c-4.009,0.012-8.019-0.007-12.028,0.018C1.011,17.62,0.317,17.287,0,16.313c0-0.208,0-0.417,0-0.625
		c0.133-0.3,0.242-0.611,0.496-0.846c0.368-0.34,0.804-0.448,1.29-0.448c4.083,0.003,8.165-0.002,12.247,0.009
		c0.301,0.001,0.372-0.069,0.371-0.371c-0.011-4.009,0.007-8.019-0.018-12.028C14.379,1.01,14.714,0.318,15.688,0
		c0.208,0,0.417,0,0.625,0c0.312,0.135,0.63,0.251,0.867,0.518c0.324,0.365,0.427,0.794,0.426,1.268
		c-0.003,4.083,0.002,8.165-0.009,12.247c-0.001,0.301,0.069,0.372,0.37,0.371c4.01-0.011,8.02,0.007,12.028-0.018
		c0.994-0.006,1.688,0.326,2.005,1.302c0,0.208,0,0.417,0,0.625c-0.135,0.3-0.241,0.611-0.495,0.846
		c-0.368,0.339-0.805,0.448-1.291,0.447c-4.082-0.003-8.165,0.003-12.247-0.009c-0.302-0.001-0.371,0.07-0.37,0.371
		c0.012,4.009-0.007,8.019,0.018,12.028c0.006,0.992-0.326,1.688-1.302,2.004C16.104,32,15.896,32,15.688,32z"/>
</g>
</svg>
